<svg id="Layer_2" enable-background="new 0 0 32 32" height="512" viewBox="0 0 32 32" width="512" xmlns="http://www.w3.org/2000/svg"><g><path d="m16 1c-8.27002 0-15 6.72998-15 15 0 2.40997.59003 4.79999 1.71997 6.95001l-1.66998 6.21997c-.13.5.01001 1.03998.38 1.40002.27002.27998.64002.43 1.02002.43.13 0 .25-.02002.38-.04999l6.21997-1.67004c2.15003 1.13 4.54005 1.72003 6.95002 1.72003 8.27002 0 15-6.73004 15-15 0-8.27002-6.72998-15-15-15zm0 24.09998c-.90997 0-1.65002-.73999-1.65002-1.64996 0-.91003.74005-1.65002 1.65002-1.65002s1.65002.73999 1.65002 1.65002c0 .90997-.74005 1.64996-1.65002 1.64996zm2.65002-8.27997c-.75.45996-1.21002 1.21997-1.21002 2.03998 0 .79999-.65002 1.45001-1.45001 1.45001s-1.45001-.65002-1.45001-1.45001c0-1.84003.97003-3.52002 2.60004-4.52002.66998-.40997 1.07001-1.13 1.04999-1.91998-.01001-1.12-.97998-2.10999-2.10999-2.15997-1.17999-.06-2.17004.82996-2.28003 2-.07001.79999-.78998 1.37-1.58002 1.31-.79999-.07001-1.37994-.78003-1.31-1.58002.24005-2.70001 2.55005-4.72998 5.29004-4.63 2.65997.10999 4.84998 2.35999 4.89996 5.02002.03003 1.79997-.90997 3.49998-2.44995 4.43999z"/></g></svg>